<svg width="92" height="100" viewBox="0 0 92 100" fill="none" xmlns="http://www.w3.org/2000/svg">
<path d="M41.7906 77.7524C41.7803 77.7344 41.7644 77.7201 41.745 77.7116C41.7256 77.7031 41.7039 77.7009 41.6828 77.7052C36.8705 78.7595 31.9328 79.2773 26.8697 79.2584C26.3176 79.2559 25.7794 79.2596 25.2551 79.2697C25.2384 79.2702 25.2225 79.2772 25.2108 79.2892C25.1992 79.3012 25.1927 79.3172 25.1927 79.334L25.2097 99.8016C25.211 99.925 25.1492 99.9868 25.0244 99.9868H0.164484C0.0548274 99.9868 0 99.932 0 99.8224V3.27947C0 3.27029 0.00176076 3.26119 0.00518124 3.25271C0.00860172 3.24423 0.0136143 3.23652 0.0199345 3.23003C0.0262547 3.22354 0.0337576 3.21839 0.0420154 3.21487C0.0502731 3.21136 0.0591248 3.20955 0.0680629 3.20955L24.9847 3.21522C25.0123 3.21522 25.0396 3.22065 25.065 3.23119C25.0905 3.24173 25.1136 3.25718 25.1331 3.27665C25.1526 3.29613 25.1681 3.31925 25.1786 3.3447C25.1891 3.37014 25.1946 3.39742 25.1946 3.42496C25.1908 19.6625 25.1946 35.9227 25.2059 52.2057C25.2059 53.0937 25.1952 53.9579 25.1738 54.7981C25.1733 54.8104 25.1752 54.8227 25.1795 54.8343C25.1839 54.8458 25.1904 54.8564 25.1989 54.8654C25.2073 54.8743 25.2175 54.8815 25.2288 54.8865C25.24 54.8915 25.2522 54.8942 25.2645 54.8945C27.6064 54.9449 30.0069 54.8277 32.466 54.543C32.6134 54.5254 32.6714 54.4441 32.6399 54.2993C31.4311 48.7352 31.0329 43.0917 31.445 37.3689C31.7601 32.9876 32.5599 28.8772 33.8442 25.0377C36.6575 16.6197 41.8151 9.0785 49.2226 4.33006C52.8073 2.03425 57.1482 0.490487 61.4796 0.112576C67.0129 -0.371149 72.2058 0.704006 77.0584 3.33804C78.2004 3.95782 79.2698 4.6475 80.2668 5.4071C85.3703 9.2958 88.7678 14.385 90.4592 20.6747C91.794 25.6404 91.7071 31.0767 90.6578 36.0689C89.9267 39.5494 88.7696 42.938 87.1866 46.2347C85.9942 48.7163 84.6859 50.8981 83.2616 52.7801C81.5348 55.0614 79.5616 57.1966 77.342 59.1857C73.5835 62.5528 69.6308 65.3469 65.484 67.5677C65.3529 67.637 65.2313 67.7195 65.1191 67.8152C65.1029 67.8294 65.0899 67.8468 65.081 67.8663C65.0721 67.8858 65.0675 67.907 65.0675 67.9283C65.0675 67.9497 65.0721 67.9707 65.081 67.99C65.0899 68.0093 65.1029 68.0264 65.1191 68.0401C69.3711 71.6756 74.9163 73.4744 80.3444 74.6176C83.2547 75.2311 86.1593 75.5788 89.0583 75.6607C89.0867 75.6616 89.1136 75.6736 89.1334 75.6941C89.1531 75.7145 89.1642 75.7418 89.1642 75.7703L89.1679 99.777C89.1679 99.8065 89.1621 99.8356 89.1508 99.8628C89.1395 99.89 89.1228 99.9146 89.1019 99.9354C89.081 99.9561 89.0562 99.9725 89.0289 99.9836C89.0016 99.9947 88.9724 100 88.943 100C75.7123 99.9414 62.4268 96.8255 51.7901 88.8478C47.833 85.8831 44.2295 82.0152 41.7906 77.7524ZM68.4523 33.7013C69.0346 32.2576 69.5003 30.8115 69.8494 29.3628C70.1217 28.2316 70.2937 27.0463 70.3656 25.8067C70.5149 23.2105 70.0574 20.3629 67.6204 19.1007C66.1797 18.3543 64.3496 18.668 63.0394 19.5731C61.576 20.5846 60.3074 21.8292 59.2335 23.3068C56.0251 27.7227 54.3897 32.9209 53.728 38.393C53.2554 42.3107 53.2566 46.4161 53.7318 50.7091C53.7368 50.7545 53.7608 50.7853 53.8036 50.8017C53.8226 50.8097 53.8436 50.8125 53.8645 50.8099C53.8853 50.8072 53.9054 50.7992 53.9227 50.7866C60.1316 46.3102 65.605 40.7625 68.4523 33.7013Z" fill="#FF7C7E"/>
</svg>